<svg width="150" height="150" viewBox="0 0 150 150" fill="none" xmlns="http://www.w3.org/2000/svg">
<g clip-path="url(#clip0)">
<path d="M118.3 0H31.7C14.1926 0 0 14.1925 0 31.6999V118.3C0 135.807 14.1926 150 31.7 150H118.3C135.807 150 150 135.807 150 118.3V31.6999C150 14.1925 135.807 0 118.3 0Z" fill="url(#paint0_linear)" fill-opacity="0.9"/>
<path d="M63.1151 53.1315C52.7116 53.1315 43.8848 59.9458 40.8311 69.3427C39.2766 68.5623 37.5567 68.27 35.8873 68.4637C33.7248 68.7137 31.6567 69.761 30.1622 71.546C27.1733 75.1157 27.5116 80.4315 30.9251 83.5822C33.7695 86.2075 37.9314 86.5559 41.1729 84.7296C44.4971 93.6346 53.0638 100.007 63.1151 100.007C73.6218 100.007 82.5352 93.0569 85.5028 83.515H85.509C85.9764 81.771 86.7541 80.6209 88.0542 79.6515C89.3543 78.6821 91.2515 77.9219 93.8525 77.3444C99.0545 76.1897 106.959 75.7831 117.913 75.0006H117.803C119.626 75.0006 121.274 74.5207 122.423 73.371C123.573 72.2216 124.053 70.5737 124.053 68.7506V59.3756C124.053 57.5528 123.573 55.9051 122.423 54.7554C121.273 53.6061 119.625 53.1256 117.803 53.1256H94.3651H63.1151V53.1315ZM63.1151 56.2626C74.3519 56.2626 83.4276 65.3384 83.4276 76.5749C83.4276 78.6821 83.1107 80.708 82.5182 82.6174C82.5094 82.6487 82.4963 82.677 82.4875 82.7082C79.8913 90.9345 72.2109 96.8867 63.1151 96.8867C51.8783 96.8867 42.8026 87.8111 42.8026 76.5742C42.8026 65.3376 51.8783 56.2617 63.1151 56.2617V56.2626ZM74.7606 56.2626H86.5648L86.6014 60.9684C86.6047 61.3807 86.7707 61.775 87.0634 62.0654C87.356 62.3557 87.7516 62.5189 88.1639 62.5189H100.615C100.822 62.5189 101.027 62.4777 101.217 62.398C101.408 62.3183 101.581 62.2017 101.726 62.0547C101.872 61.9076 101.986 61.7333 102.064 61.5416C102.141 61.3499 102.18 61.1447 102.178 60.9379L102.141 56.2626H117.803C119.105 56.2626 119.8 56.5626 120.213 56.9769C120.626 57.3901 120.928 58.0858 120.928 59.3876V68.7624C120.928 70.0646 120.626 70.7605 120.213 71.1733C119.8 71.5865 119.105 71.8874 117.803 71.8874C117.766 71.8861 117.729 71.8861 117.693 71.8874C106.772 72.6674 98.8627 73.0423 93.1749 74.3048C90.4999 74.8986 88.3053 75.7114 86.5343 76.9354C86.5361 76.8136 86.5527 76.6978 86.5527 76.5749C86.5527 67.8902 81.7957 60.3117 74.7607 56.2626H74.7606ZM99.016 56.5251L99.0403 59.3937H89.7142L89.6898 56.6471L99.016 56.5253V56.5251ZM63.1151 62.5124C55.3671 62.5124 49.0526 68.8271 49.0526 76.5749C49.0526 84.3231 55.3671 90.6374 63.1151 90.6374C70.8631 90.6374 77.1776 84.3231 77.1776 76.5749C77.1776 68.8271 70.8631 62.5124 63.1151 62.5124ZM63.1151 65.6374C69.1742 65.6374 74.0526 70.5159 74.0526 76.5749C74.0526 82.634 69.1742 87.5124 63.1151 87.5124C57.056 87.5124 52.1776 82.634 52.1776 76.5749C52.1776 70.5159 57.056 65.6374 63.1151 65.6374ZM37.2911 71.5338C38.2543 71.6026 39.2002 71.939 40.0499 72.5165C39.8182 73.8371 39.6776 75.189 39.6776 76.5749C39.6776 78.3165 39.8835 80.0071 40.2452 81.6409C38.0901 83.2584 35.0784 83.1671 33.0492 81.2933C30.8343 79.2493 30.6159 75.8693 32.5548 73.5537C33.7666 72.1068 35.543 71.4094 37.2911 71.5338Z" fill="white"/>
</g>
<defs>
<linearGradient id="paint0_linear" x1="9.76133" y1="1.98802" x2="140.07" y2="145.575" gradientUnits="userSpaceOnUse">
<stop stop-color="#D4145A"/>
<stop offset="1" stop-color="#FBB03B"/>
</linearGradient>
<clipPath id="clip0">
<rect width="150" height="150" fill="white"/>
</clipPath>
</defs>
</svg>
