<svg width="150" height="150" viewBox="0 0 150 150" fill="none" xmlns="http://www.w3.org/2000/svg">
<g clip-path="url(#clip0)">
<path d="M118.3 0H31.7C14.1926 0 0 14.1925 0 31.6999V118.3C0 135.807 14.1926 150 31.7 150H118.3C135.807 150 150 135.807 150 118.3V31.6999C150 14.1925 135.807 0 118.3 0Z" fill="url(#paint0_linear)"/>
<path d="M29.6886 43.7287C27.1187 43.7287 25.0011 45.8462 25.0011 48.4162V74.8627C24.9996 74.9013 24.9996 74.9398 25.0011 74.9783V84.9942V101.541C24.9981 101.748 25.0364 101.953 25.1136 102.145C25.1908 102.338 25.3054 102.513 25.4508 102.66C25.5962 102.808 25.7694 102.925 25.9605 103.005C26.1515 103.084 26.3565 103.125 26.5636 103.125C26.7706 103.125 26.9756 103.084 27.1667 103.005C27.3577 102.925 27.5309 102.808 27.6763 102.66C27.8217 102.513 27.9363 102.338 28.0135 102.145C28.0907 101.953 28.129 101.748 28.1261 101.541V96.8533H121.876V101.541C121.873 101.748 121.911 101.953 121.989 102.145C122.066 102.338 122.18 102.513 122.326 102.66C122.471 102.808 122.644 102.925 122.835 103.005C123.026 103.084 123.231 103.125 123.439 103.125C123.646 103.125 123.851 103.084 124.042 103.005C124.233 102.925 124.406 102.808 124.551 102.66C124.697 102.513 124.811 102.338 124.889 102.145C124.966 101.953 125.004 101.748 125.001 101.541V74.9783C125.001 71.5427 122.187 68.7283 118.751 68.7283C118.741 65.3014 115.93 62.4966 112.501 62.4966H46.5831C45.9315 60.6873 44.2096 59.3718 42.1886 59.3718H35.9386C35.3897 59.3718 34.8674 59.4811 34.3761 59.6593V48.4164C34.3761 45.8464 32.2584 43.7289 29.6886 43.7289V43.7287ZM29.6886 46.8537C30.5812 46.8537 31.2511 47.5234 31.2511 48.4162V70.041C31.2242 70.2066 31.2242 70.3758 31.2511 70.5414V84.3537H28.1261V74.9787V48.4162C28.1261 47.5234 28.7959 46.8537 29.6886 46.8537ZM35.9386 62.497H42.1886C43.0441 62.497 43.6801 63.1189 43.7328 63.9557C43.725 64.0761 43.7312 64.197 43.7512 64.3159V68.7287H34.3762V64.0595C34.3762 63.167 35.046 62.497 35.9387 62.497H35.9386ZM46.8761 65.622H112.501C114.253 65.622 115.61 66.9803 115.62 68.7287H46.8761V65.622ZM34.3761 71.8537H44.9779C45.199 71.9023 45.4281 71.9023 45.6493 71.8537H118.751C120.509 71.8537 121.876 73.2203 121.876 74.9787V84.3537H34.3761V71.8537ZM28.1261 87.4787H121.876V93.7287H28.1261V87.4787Z" fill="white"/>
</g>
<defs>
<linearGradient id="paint0_linear" x1="12" y1="11" x2="131" y2="139" gradientUnits="userSpaceOnUse">
<stop stop-color="#B066FE"/>
<stop offset="1" stop-color="#63E2FF"/>
</linearGradient>
<clipPath id="clip0">
<rect width="150" height="150" fill="white"/>
</clipPath>
</defs>
</svg>
