<svg width="150" height="150" viewBox="0 0 150 150" fill="none" xmlns="http://www.w3.org/2000/svg">
<path d="M118.298 0H31.7019C14.1934 0 0 14.1934 0 31.7019V118.297C0 135.806 14.1934 150 31.7019 150H118.298C135.807 150 150 135.806 150 118.297V31.7019C150 14.1934 135.807 0 118.298 0Z" fill="url(#paint0_linear)" fill-opacity="0.8"/>
<path d="M37.5001 51.9232C36.7351 51.9233 36.0014 52.2273 35.4604 52.7683C34.9195 53.3092 34.6156 54.0428 34.6155 54.8078V100.962C34.6156 101.727 34.9195 102.46 35.4604 103.001C36.0014 103.542 36.7351 103.846 37.5001 103.846H106.731C107.496 103.846 108.23 103.542 108.771 103.001C109.311 102.46 109.615 101.727 109.615 100.962V92.3078H118.269C119.034 92.3077 119.768 92.0037 120.309 91.4627C120.85 90.9217 121.154 90.1882 121.154 89.4232V66.3463C121.154 65.5812 120.85 64.8477 120.309 64.3068C119.768 63.7658 119.034 63.4617 118.269 63.4616H109.615V54.8078C109.615 54.0428 109.311 53.3092 108.771 52.7683C108.23 52.2273 107.496 51.9233 106.731 51.9232H57.6924H51.9232H37.5001ZM40.3847 57.6924H51.9232V98.077H40.3847V57.6924ZM57.6924 57.6924H69.2309V98.077H57.6924V57.6924ZM75.0001 57.6924H86.5386V98.077H75.0001V57.6924ZM92.3078 57.6924H103.846V66.3463V89.4232V98.077H92.3078V57.6924ZM109.615 69.2309H115.385V86.5386H109.615V69.2309Z" fill="white"/>
<defs>
<linearGradient id="paint0_linear" x1="20.006" y1="11.2711" x2="137.843" y2="139.311" gradientUnits="userSpaceOnUse">
<stop stop-color="#3A3897"/>
<stop offset="1" stop-color="#A3A1FF"/>
</linearGradient>
</defs>
</svg>
