<svg width="150" height="150" viewBox="0 0 150 150" fill="none" xmlns="http://www.w3.org/2000/svg">
<g clip-path="url(#clip0)">
<path d="M118.3 0H31.7C14.1926 0 0 14.1925 0 31.6999V118.3C0 135.807 14.1926 150 31.7 150H118.3C135.807 150 150 135.807 150 118.3V31.6999C150 14.1925 135.807 0 118.3 0Z" fill="url(#paint0_linear)"/>
<path d="M47.6562 46.8816C42.0671 46.8816 37.5 51.4485 37.5 57.0379V93.3662C37.5 98.9552 42.0886 103.425 47.6562 103.425H62.738L71.7468 114.326C71.8935 114.502 72.0772 114.645 72.285 114.742C72.4929 114.84 72.7196 114.89 72.9492 114.89C73.1788 114.89 73.4056 114.84 73.6134 114.742C73.8212 114.645 74.005 114.502 74.1516 114.326L83.252 103.419H98.3398C103.908 103.419 108.496 98.9491 108.496 93.3601V57.032C108.496 51.4426 103.929 46.8757 98.3398 46.8757H47.6562V46.8816ZM47.6562 50.0127H98.3398C102.238 50.0127 105.371 53.1455 105.371 57.044V93.3719C105.371 97.27 102.26 100.306 98.3398 100.306H82.5195C82.2902 100.306 82.0636 100.356 81.8558 100.453C81.648 100.55 81.4641 100.691 81.3171 100.867L72.9553 110.889L64.679 100.873C64.5326 100.696 64.349 100.554 64.1411 100.455C63.9333 100.357 63.7064 100.306 63.4766 100.306H47.6562C43.7366 100.306 40.625 97.27 40.625 93.3719V57.044C40.625 53.1455 43.758 50.0127 47.6562 50.0127Z" fill="white"/>
</g>
<defs>
<linearGradient id="paint0_linear" x1="20.0143" y1="11.2776" x2="137.852" y2="139.318" gradientUnits="userSpaceOnUse">
<stop stop-color="#FB872B"/>
<stop offset="1" stop-color="#D9E021"/>
</linearGradient>
<clipPath id="clip0">
<rect width="150" height="150" fill="white"/>
</clipPath>
</defs>
</svg>
