<svg width="150" height="150" viewBox="0 0 150 150" fill="none" xmlns="http://www.w3.org/2000/svg">
<path d="M118.298 0H31.7016C14.1933 0 0 14.193 0 31.7013V118.298C0 135.806 14.1933 150 31.7016 150H118.298C135.807 150 150 135.806 150 118.298V31.7013C150 14.193 135.807 0 118.298 0Z" fill="url(#paint0_linear)" fill-opacity="0.8"/>
<path d="M74.2675 37.5C73.7789 37.6597 73.3564 37.9757 73.0652 38.3992C72.774 38.8228 72.6303 39.3304 72.6561 39.8437V47.168C66.6683 47.656 61.1778 49.8029 56.8358 53.4668L51.8553 48.4863C51.584 48.1842 51.2388 47.9579 50.8536 47.8295C50.4684 47.7011 50.0564 47.675 49.6581 47.7539C49.2439 47.8402 48.8608 48.037 48.5496 48.3236C48.2383 48.6101 48.0105 48.9756 47.8903 49.3813C47.7701 49.7869 47.7621 50.2175 47.867 50.6274C47.9719 51.0372 48.1859 51.411 48.4862 51.709L53.6132 56.8359C49.9268 61.1647 47.535 66.6703 47.0214 72.6562H39.8436C39.601 72.6178 39.3538 72.6178 39.1112 72.6562C38.8034 72.7043 38.5081 72.8126 38.2422 72.9748C37.9762 73.137 37.7448 73.35 37.5612 73.6017C37.3775 73.8533 37.2453 74.1386 37.1719 74.4414C37.0986 74.7442 37.0856 75.0584 37.1337 75.3662C37.1818 75.674 37.29 75.9693 37.4522 76.2352C37.6144 76.5012 37.8274 76.7326 38.0791 76.9162C38.3307 77.0998 38.6161 77.2321 38.9188 77.3055C39.2216 77.3788 39.5358 77.3918 39.8436 77.3437H47.0214C47.5099 83.3365 49.7975 88.8203 53.4667 93.164L48.4862 98.1445C48.239 98.3577 48.0391 98.6203 47.8993 98.9153C47.7595 99.2103 47.683 99.5313 47.6746 99.8577C47.6662 100.184 47.7261 100.509 47.8505 100.81C47.9749 101.112 48.161 101.385 48.3969 101.61C48.6328 101.836 48.9133 102.01 49.2204 102.121C49.5274 102.232 49.8543 102.277 50.1799 102.254C50.5056 102.231 50.8229 102.14 51.1114 101.988C51.3999 101.835 51.6533 101.624 51.8553 101.367L56.8358 96.3867C61.1912 100.091 66.6298 102.487 72.6561 102.979V110.01C72.6561 110.631 72.9031 111.228 73.3426 111.667C73.7821 112.107 74.3783 112.354 74.9999 112.354C75.6215 112.354 76.2176 112.107 76.6572 111.667C77.0967 111.228 77.3436 110.631 77.3436 110.01V102.979C83.37 102.487 88.8085 100.091 93.1639 96.3867L98.1444 101.367C98.3464 101.624 98.5998 101.835 98.8883 101.988C99.1769 102.14 99.4942 102.231 99.8198 102.254C100.145 102.277 100.472 102.232 100.779 102.121C101.086 102.01 101.367 101.836 101.603 101.61C101.839 101.385 102.025 101.112 102.149 100.81C102.274 100.509 102.334 100.184 102.325 99.8577C102.317 99.5313 102.24 99.2103 102.1 98.9153C101.961 98.6203 101.761 98.3577 101.514 98.1445L96.5331 93.164C100.202 88.8203 102.49 83.3365 102.978 77.3437H110.596C111.217 77.3437 111.813 77.0968 112.253 76.6573C112.692 76.2177 112.939 75.6216 112.939 75C112.939 74.3784 112.692 73.7822 112.253 73.3427C111.813 72.9032 111.217 72.6562 110.596 72.6562H102.978C102.465 66.6703 100.073 61.1647 96.3866 56.8359L101.514 51.709C101.884 51.3505 102.126 50.8798 102.202 50.3697C102.278 49.8597 102.183 49.339 101.933 48.8882C101.682 48.4375 101.29 48.082 100.817 47.8769C100.344 47.6718 99.8164 47.6286 99.3163 47.7539C98.8609 47.8746 98.4525 48.1299 98.1444 48.4863L93.1639 53.4668C88.8219 49.8029 83.3314 47.656 77.3436 47.168V39.8437C77.3633 39.4632 77.2898 39.0836 77.1296 38.7379C76.9694 38.3922 76.7272 38.0909 76.4241 37.8599C76.1211 37.629 75.7662 37.4755 75.3904 37.4128C75.0146 37.3501 74.6291 37.38 74.2675 37.5ZM72.6561 51.709C73.4446 51.6292 74.1898 51.709 74.9999 51.709C81.257 51.709 86.9182 54.0282 91.1132 58.0078C91.185 58.076 91.1886 58.2317 91.2596 58.3008C91.3063 58.3517 91.3552 58.4006 91.4061 58.4472C91.4334 58.4742 91.5255 58.4201 91.5526 58.4472C91.6416 58.5532 91.7396 58.6513 91.8456 58.7402C91.8925 58.7888 91.9456 58.8378 91.9921 58.8867C92.0387 58.9376 92.0876 58.9865 92.1385 59.0332C96.0404 63.214 98.4374 68.8119 98.4374 75C98.4374 81.2211 95.9312 86.9256 91.9921 91.1133C91.5266 91.3755 91.1648 91.789 90.9667 92.2851C86.8893 96.0857 81.4431 98.3244 75.4393 98.4375C75.2046 98.3498 74.9573 98.3003 74.7069 98.291C74.6059 98.3329 74.5081 98.3819 74.4139 98.4375C68.4697 98.2882 63.0764 96.054 59.0331 92.2851C58.9864 92.2342 58.9376 92.1853 58.8866 92.1387C58.8646 92.1178 58.9085 92.0131 58.8866 91.9922C58.6781 91.6254 58.3745 91.3217 58.0077 91.1133C57.9867 91.0909 57.8821 91.1357 57.8612 91.1133C57.8146 91.0623 57.7657 91.0134 57.7147 90.9668C53.9835 86.899 51.6679 81.386 51.5624 75.4394C51.6178 75.1491 51.6178 74.8509 51.5624 74.5605C51.6769 68.4788 54.1199 62.9811 58.0077 58.8867C58.3026 58.6992 58.5526 58.4492 58.7401 58.1543C62.4107 54.6103 67.2812 52.2526 72.6561 51.709Z" fill="white"/>
<defs>
<linearGradient id="paint0_linear" x1="13" y1="11.5" x2="141" y2="150" gradientUnits="userSpaceOnUse">
<stop stop-color="#ED1C24"/>
<stop offset="1" stop-color="#FCEE21"/>
</linearGradient>
</defs>
</svg>
