<svg width="150" height="150" viewBox="0 0 150 150" fill="none" xmlns="http://www.w3.org/2000/svg">
<path d="M118.3 0H31.7C14.1926 0 0 14.1923 0 31.6998V118.3C0 135.807 14.1926 150 31.7 150H118.3C135.807 150 150 135.807 150 118.3V31.6998C150 14.1923 135.807 0 118.3 0Z" fill="url(#paint0_linear)"/>
<path d="M75 28.1234C57.0978 28.1234 42.5476 42.6388 42.5476 60.5025C42.5476 65.2294 44.5799 71.1783 47.5159 77.6721C50.4519 84.1658 54.3345 91.1483 58.2153 97.5939C65.9771 110.486 73.7305 121.227 73.7305 121.227C73.8752 121.428 74.0657 121.593 74.2865 121.706C74.5073 121.819 74.7519 121.878 75 121.878C75.2481 121.878 75.4927 121.819 75.7135 121.706C75.9343 121.593 76.1248 121.428 76.2695 121.227C76.2695 121.227 84.0229 110.486 91.7847 97.5939C95.6655 91.1483 99.5481 84.1658 102.484 77.6721C105.42 71.1783 107.452 65.2294 107.452 60.5025C107.452 42.6388 92.9021 28.1234 75 28.1234ZM75 31.2484C91.2175 31.2484 104.327 44.3319 104.327 60.5025C104.327 64.2841 102.496 70.0677 99.6399 76.3842C96.7841 82.7005 92.9467 89.6019 89.1052 95.9822C82.0569 107.689 76.1173 115.905 75 117.467C73.8827 115.905 67.9431 107.689 60.8948 95.9822C57.0533 89.6019 53.2159 82.7005 50.3601 76.3842C47.5043 70.0677 45.6726 64.2841 45.6726 60.5025C45.6726 44.3319 58.7825 31.2484 75 31.2484ZM75 37.4984C62.0743 37.4984 51.5625 48.0102 51.5625 60.9359C51.5625 73.8615 62.0743 84.3734 75 84.3734C87.9257 84.3734 98.4375 73.8615 98.4375 60.9359C98.4375 48.0102 87.9257 37.4984 75 37.4984ZM75 40.6234C86.2368 40.6234 95.3125 49.6993 95.3125 60.9359C95.3125 72.1727 86.2368 81.2484 75 81.2484C63.7632 81.2484 54.6875 72.1727 54.6875 60.9359C54.6875 49.6993 63.7632 40.6234 75 40.6234Z" fill="white"/>
<defs>
<linearGradient id="paint0_linear" x1="20.0143" y1="11.2776" x2="137.852" y2="139.318" gradientUnits="userSpaceOnUse">
<stop stop-color="#24F7BC"/>
<stop offset="1" stop-color="#24C4FC"/>
</linearGradient>
</defs>
</svg>
