<svg width="50" height="44" viewBox="0 0 50 44" fill="none" xmlns="http://www.w3.org/2000/svg">
<g clip-path="url(#clip0)">
<path fill-rule="evenodd" clip-rule="evenodd" d="M28.1689 14.3241C28.2589 14.4143 28.3658 14.4858 28.4836 14.5344C28.6014 14.5829 28.7277 14.6075 28.8551 14.6069C28.9826 14.6079 29.109 14.5835 29.2268 14.5349C29.3447 14.4863 29.4516 14.4146 29.5413 14.3241L34.1482 9.71723C34.2385 9.62722 34.3101 9.52036 34.359 9.40268C34.4079 9.28501 34.4332 9.15886 34.4333 9.03142C34.4335 8.90398 34.4085 8.77775 34.3599 8.65995C34.3113 8.54215 34.24 8.43511 34.15 8.34488C34.06 8.25465 33.9531 8.18302 33.8354 8.1341C33.7177 8.08518 33.5916 8.05986 33.4641 8.0597C33.3367 8.05954 33.2104 8.08453 33.0926 8.13315C32.9748 8.18177 32.8677 8.25309 32.7775 8.34309L29.8275 11.2931V4.41727C29.8257 4.16025 29.7226 3.91426 29.5405 3.73283C29.3584 3.55141 29.1121 3.44919 28.8551 3.44828C28.5986 3.44964 28.3529 3.55215 28.1715 3.73357C27.99 3.91499 27.8875 4.1607 27.8862 4.41727V11.2931L24.9327 8.34309C24.7491 8.16804 24.5043 8.07179 24.2507 8.07496C23.9971 8.07813 23.7547 8.18045 23.5756 8.36004C23.3964 8.53963 23.2947 8.7823 23.2922 9.03595C23.2896 9.2896 23.3865 9.53409 23.562 9.71723L28.1689 14.3241ZM46.1034 38.3604C46.1034 38.9673 45.8672 39.5328 45.4362 39.9673C45.0003 40.358 44.4315 40.5671 43.8463 40.5517C43.2611 40.5363 42.7041 40.2975 42.2894 39.8844C41.8747 39.4712 41.6338 38.9151 41.6163 38.33C41.5987 37.7449 41.8057 37.1752 42.1948 36.7379C42.5145 36.4158 42.9229 36.1962 43.368 36.107C43.813 36.0179 44.2745 36.0631 44.6937 36.2371C45.1129 36.4111 45.4708 36.706 45.7219 37.0841C45.9729 37.4622 46.1057 37.9065 46.1034 38.3604ZM16.4793 38.3604C16.4827 38.9673 16.2465 39.5328 15.8155 39.9673C15.4961 40.289 15.0884 40.5084 14.644 40.5978C14.1996 40.6872 13.7387 40.6425 13.3198 40.4694C12.9009 40.2962 12.5429 40.0025 12.2913 39.6254C12.0397 39.2483 11.9059 38.805 11.9069 38.3518C11.9047 38.0522 11.9622 37.7551 12.0762 37.478C12.1902 37.2009 12.3582 36.9493 12.5706 36.7379C12.9996 36.3076 13.582 36.0651 14.1896 36.0638C15.4483 36.0638 16.4793 37.0949 16.4793 38.3604ZM14.1896 29.5448H43.5241C43.74 29.5441 43.9496 29.4715 44.1198 29.3386C44.2899 29.2056 44.4109 29.0198 44.4638 28.8104L49.3499 9.26209C49.3603 9.22244 49.3293 9.18447 49.3327 9.13792C49.3396 9.10344 49.3793 9.07419 49.3793 9.02763C49.3793 8.93625 49.3051 8.87582 49.281 8.78444C49.2448 8.66375 49.2241 8.55519 49.143 8.45864C49.062 8.35174 48.9637 8.30694 48.8534 8.24659C48.7758 8.20349 48.7361 8.10859 48.6448 8.0879C48.5982 8.08101 48.5707 8.10859 48.5241 8.10169C48.4845 8.10169 48.4534 8.05865 48.4137 8.05865H39.9827C39.7257 8.05865 39.4793 8.16075 39.2976 8.34246C39.1158 8.52418 39.0137 8.77065 39.0137 9.02763C39.0137 9.28462 39.1158 9.53109 39.2976 9.71281C39.4793 9.89452 39.7257 9.99651 39.9827 9.99651H47.1672L42.762 27.6052H14.9483L10.5465 9.99651H17.7327C17.9897 9.99651 18.2362 9.89452 18.4179 9.71281C18.5996 9.53109 18.7017 9.28462 18.7017 9.02763C18.7017 8.77065 18.5996 8.52418 18.4179 8.34246C18.2362 8.16075 17.9897 8.05865 17.7327 8.05865H10.0603L8.61202 2.27409C8.55953 2.06485 8.43881 1.87915 8.26896 1.74614C8.09911 1.61313 7.8898 1.54047 7.67408 1.53967H1.16894C0.911913 1.54057 0.665625 1.6428 0.483556 1.82422C0.301487 2.00565 0.198348 2.25164 0.196533 2.50866C0.196533 3.04659 0.634456 3.47764 1.16894 3.47764H6.91719L8.36546 9.26209L13.0086 27.8396C12.3362 28.0344 11.7017 28.338 11.1931 28.8466C10.8012 29.2379 10.4908 29.7029 10.2798 30.2148C10.0688 30.7268 9.96136 31.2756 9.96374 31.8293C9.96374 33.1724 10.6276 34.3173 11.6017 35.0931C11.4689 35.1983 11.3069 35.2518 11.1931 35.3656C10.8009 35.7566 10.4903 36.2216 10.2793 36.7336C10.0683 37.2456 9.96098 37.7945 9.96374 38.3483C9.9641 39.1849 10.2126 40.0027 10.6778 40.698C11.143 41.3934 11.8039 41.9352 12.5771 42.2549C13.3502 42.5745 14.2008 42.6577 15.0212 42.4938C15.8417 42.33 16.5951 41.9266 17.1861 41.3345C17.9792 40.5293 18.4155 39.4724 18.4103 38.3483C18.4103 37.4862 18.0914 36.7345 17.6448 36.0621H40.3483C39.8965 36.7518 39.581 37.5173 39.5845 38.3483C39.5845 40.6845 41.481 42.5776 43.8086 42.5776C44.9448 42.5776 46.0051 42.1397 46.8034 41.3345C47.1985 40.9445 47.5114 40.4794 47.7238 39.9665C47.9361 39.4536 48.0435 38.9034 48.0396 38.3483C48.0364 37.2285 47.5905 36.1554 46.7992 35.363C46.0078 34.5707 44.9353 34.1235 43.8155 34.119H14.1896C12.931 34.119 11.9069 33.0983 11.9069 31.8293C11.9062 31.5291 11.9648 31.2318 12.0793 30.9543C12.1939 30.6768 12.3622 30.4247 12.5745 30.2124C12.7867 30.0001 13.0388 29.832 13.3163 29.7174C13.5938 29.6028 13.8911 29.5441 14.1913 29.5448H14.1896Z" fill="#343D4E" stroke="#343D4E"/>
</g>
<defs>
<clipPath id="clip0">
<rect width="50" height="43.1034" fill="white"/>
</clipPath>
</defs>
</svg>
